<svg width="16" height="17" viewBox="0 0 16 17" fill="none" xmlns="http://www.w3.org/2000/svg">
<g clip-path="url(#clip0_606_43069)">
<path d="M3.52141 12.4403C3.8302 12.4414 4.13612 12.3801 4.42142 12.26C4.70672 12.14 4.96572 11.9636 5.18338 11.7409L7.58242 9.30284C7.66751 9.22036 7.78067 9.17431 7.89827 9.17431C8.01594 9.17431 8.12904 9.22036 8.2142 9.30284L10.6226 11.751C10.8406 11.9733 11.0998 12.1495 11.3853 12.2694C11.6707 12.3893 11.9767 12.4504 12.2855 12.4493H12.7586L9.71842 15.5376C9.49296 15.7673 9.22504 15.9495 8.9302 16.0739C8.63529 16.1982 8.31914 16.2622 7.99987 16.2622C7.6806 16.2622 7.36445 16.1982 7.06957 16.0739C6.77468 15.9495 6.50681 15.7673 6.28131 15.5376L3.22876 12.4403H3.52141ZM12.2855 3.81261C11.9768 3.81167 11.671 3.87294 11.3857 3.99289C11.1005 4.11285 10.8414 4.2891 10.6236 4.51145L8.21864 6.96064C8.13485 7.04559 8.02133 7.0933 7.903 7.0933C7.78467 7.0933 7.67114 7.04559 7.58736 6.96064L5.18832 4.522C4.97069 4.29935 4.71171 4.12288 4.4264 4.00282C4.14109 3.88277 3.83515 3.82153 3.52635 3.82266H3.22876L6.28131 0.72336C6.73713 0.260195 7.35529 0 7.99987 0C8.64445 0 9.26264 0.260195 9.71842 0.72336L12.7586 3.81211L12.2855 3.81261Z" fill="#34ABA1"/>
<path d="M0.712165 6.38415L2.52737 4.53884H3.52149C3.9575 4.53934 4.37521 4.71468 4.68468 5.02617L7.0837 7.46431C7.1906 7.57355 7.31767 7.66025 7.45767 7.71938C7.59767 7.77859 7.74778 7.80904 7.89935 7.80904C8.05098 7.80904 8.20109 7.77859 8.34102 7.71938C8.48102 7.66025 8.60815 7.57355 8.71505 7.46431L11.1234 5.01662C11.4329 4.7048 11.8508 4.52968 12.2866 4.5293H13.4651L15.2882 6.38214C15.744 6.8454 16 7.47362 16 8.12871C16 8.78381 15.744 9.41207 15.2882 9.87535L13.4651 11.7281H12.2856C11.8501 11.7281 11.4319 11.5523 11.1225 11.2408L8.71455 8.79216C8.49484 8.57892 8.20269 8.45992 7.89884 8.45992C7.59505 8.45992 7.30291 8.57892 7.08321 8.79216L4.68418 11.2303C4.37472 11.5418 3.957 11.7176 3.521 11.7176H2.52737L0.712165 9.87735C0.48639 9.648 0.307287 9.3757 0.185092 9.07606C0.0628951 8.77634 0 8.45511 0 8.13071C0 7.80631 0.0628951 7.48515 0.185092 7.18544C0.307287 6.88575 0.48639 6.61347 0.712165 6.38415Z" fill="#34ABA1"/>
</g>
<defs>
<clipPath id="clip0_606_43069">
<rect width="16" height="17" fill="white"/>
</clipPath>
</defs>
</svg>
